# xmcd
#
# Track frame offsets:
#	150
#	16340
#	27435
#	41328
#	57902
#	72072
#	87222
#	102663
#	121409
#	141336
#	153945
#
# Disc length: 2258 seconds
#
# Revision: 0
# Processed by: cddbd v1.5.2PL0 Copyright (c) Steve Scherf et al.
# Submitted via: EasyCDDAExtractor 16.0.1.1
#
DISCID=8e08d00b
DTITLE=Clay Cooper - Third Time's The Charm
DYEAR=2006
DGENRE=Country
TTITLE0=Way Down South
TTITLE1=She' My Rock
TTITLE2=My Own Kind Of Hat
TTITLE3=Go Girl Go
TTITLE4=Why Can't We All Just Get A Long
TTITLE5=Pennies From heaven
TTITLE6=Ain't Nobody Here But Us Chickens
TTITLE7=Mona Lisa Lost Her Smile
TTITLE8=Amos Moses
TTITLE9=Me And God
TTITLE10=In God We Trust
EXTD=
EXTT0=
EXTT1=
EXTT2=
EXTT3=
EXTT4=
EXTT5=
EXTT6=
EXTT7=
EXTT8=
EXTT9=
EXTT10=
PLAYORDER=
